<svg width="41" height="18" viewBox="0 0 41 18" fill="none" xmlns="http://www.w3.org/2000/svg">
    <mask id="path-1-outside-1_3766_9479" maskUnits="userSpaceOnUse" x="-0.5" y="0.304688" width="41" height="18" fill="black">
        <rect fill="white" x="-0.5" y="0.304688" width="41" height="18"/>
        <path fill-rule="evenodd" clip-rule="evenodd" d="M39.5 14.2641C39.5 15.24 38.8988 15.6945 37.8209 15.6945H35.7627V14.7178H37.8209C38.0113 14.7178 38.1691 14.6863 38.2333 14.6209C38.2968 14.5555 38.3595 14.4579 38.3595 14.3279C38.3595 14.1972 38.2968 14.068 38.2333 14.0034C38.1691 13.938 38.043 13.9057 37.8526 13.9057C36.8707 13.8726 35.6358 13.938 35.6358 12.5068C35.6358 11.8562 36.0482 11.1411 37.1562 11.1411H39.2779V12.1169H37.3141C37.1245 12.1169 36.9968 12.1169 36.9024 12.1823C36.808 12.2792 36.7446 12.3769 36.7446 12.5407C36.7446 12.7029 36.8398 12.8006 36.9651 12.8652C37.092 12.8983 37.2189 12.9306 37.3775 12.9306H37.947C38.5483 12.9306 38.929 13.0605 39.182 13.2889C39.3731 13.5166 39.5 13.8096 39.5 14.2641ZM35.0346 13.2889C34.7815 13.0605 34.4008 12.9306 33.7988 12.9306H33.2293C33.0707 12.9306 32.9438 12.8983 32.8185 12.8652C32.6916 12.8006 32.5964 12.7029 32.5964 12.5407C32.5964 12.3769 32.6281 12.2792 32.755 12.1823C32.8494 12.1169 32.9755 12.1169 33.1659 12.1169H35.129V11.1411H33.0073C31.8675 11.1411 31.4868 11.857 31.4868 12.5068C31.4868 13.938 32.7233 13.8726 33.7037 13.9057C33.894 13.9057 34.0209 13.938 34.0844 14.0034C34.147 14.068 34.2113 14.1972 34.2113 14.3279C34.2113 14.4579 34.147 14.5555 34.0844 14.6209C33.9892 14.6863 33.8623 14.7178 33.6727 14.7178H31.6145V15.6945H33.6727C34.749 15.6945 35.351 15.2392 35.351 14.2641C35.351 13.8096 35.2241 13.5166 35.0346 13.2889ZM30.9808 14.7516H28.4799V13.8411H30.9173V12.9298H28.4799V12.0839H30.9808V11.1403H27.4353V15.6937H30.9808V14.7516ZM26.294 11.3702C25.9466 11.1741 25.5349 11.1418 24.9956 11.1418H22.5582V15.6952H23.6346V14.0364H24.7759C25.155 14.0364 25.3771 14.0695 25.5349 14.2318C25.7245 14.4594 25.7245 14.8501 25.7245 15.1431V15.696H26.7691V14.817C26.7691 14.3948 26.7382 14.1987 26.612 13.9718C26.5169 13.8419 26.3265 13.6788 26.0743 13.5812C26.3582 13.4835 26.8333 13.0936 26.8333 12.3776C26.8333 11.857 26.643 11.5648 26.294 11.3702ZM20.2787 11.1418H16.8903L15.5285 12.6383L14.2301 11.1418H9.95502V15.6952H14.1667L15.5285 14.1987L16.8269 15.6952H18.8851V14.1672H20.2153C21.1337 14.1672 22.0514 13.9072 22.0514 12.6391C22.0514 11.4025 21.1012 11.1418 20.2787 11.1418ZM25.4398 13.0282C25.2819 13.0936 25.1233 13.0936 24.9329 13.0936L23.6346 13.1259V12.0846H24.9329C25.1233 12.0846 25.3121 12.0847 25.4398 12.1823C25.5659 12.2477 25.6611 12.3769 25.6611 12.5722C25.6611 12.7675 25.5659 12.9306 25.4398 13.0282ZM20.2787 13.2559H18.8851V12.0854H20.2787C20.6586 12.0854 20.9109 12.2485 20.9109 12.6391C20.9109 13.0282 20.6586 13.2559 20.2787 13.2559ZM16.194 13.4181L17.8405 11.6302V15.3046L16.194 13.4181ZM13.6281 14.7516H11.0004V13.8411H13.3434V12.9298H11.0004V12.0839H13.6606L14.8321 13.4166L13.6281 14.7516ZM36.5542 7.85732H35.0346L33.039 4.44284V7.85732H30.8856L30.4747 6.84836H28.2579L27.847 7.85732H26.612C26.1052 7.85732 25.4398 7.72658 25.0598 7.33592C24.7124 6.94602 24.5221 6.42539 24.5221 5.6133C24.5221 4.92964 24.6172 4.31288 25.0916 3.82455C25.408 3.46695 25.9783 3.30469 26.7064 3.30469H27.7201V4.27981H26.7064C26.3265 4.27981 26.1052 4.34518 25.8839 4.54051C25.6936 4.73584 25.5984 5.09344 25.5984 5.581C25.5984 6.06933 25.6936 6.42693 25.8839 6.65456C26.0425 6.81683 26.3265 6.88219 26.612 6.88219H27.0864L28.6068 3.30546H30.19L31.9634 7.59816V3.30546H33.61L35.4787 6.46V3.30546H36.555V7.85732H36.5542ZM23.9835 3.30469H22.9057V7.85732H23.9835V3.30469ZM21.7349 3.50002C21.3867 3.30469 21.0076 3.30469 20.4683 3.30469H18.0309V7.85732H19.0755V6.19853H20.216C20.5959 6.19853 20.849 6.23083 21.0076 6.39386C21.1972 6.62149 21.1654 7.01216 21.1654 7.27209V7.85809H22.2418V6.94679C22.2418 6.5569 22.21 6.36156 22.0522 6.13316C21.9578 6.0032 21.7674 5.84093 21.5454 5.74327C21.8309 5.6133 22.3052 5.25494 22.3052 4.54051C22.3044 4.01988 22.0831 3.72688 21.7349 3.50002ZM17.2703 6.91449H14.8004V6.0032H17.2385V5.0596H14.8004V4.24751H17.2703V3.30469H13.7233V7.85732H17.2703V6.91449ZM12.9317 3.30469H11.19L9.89157 6.39386L8.498 3.30469H6.78797V7.59739L4.98353 3.30469H3.40039L1.5 7.85732H2.64054L3.05219 6.84836H5.26828L5.67992 7.85732H7.83333V4.27981L9.38475 7.85732H10.3032L11.8546 4.27981V7.85732H12.9317V3.30469ZM30.0948 5.87323L29.3667 4.08448L28.6385 5.87323H30.0948ZM20.9109 5.15804C20.7538 5.25494 20.5952 5.25494 20.3739 5.25494H19.0747V4.24751H20.3739C20.5634 4.24751 20.7847 4.24751 20.9109 4.31288C21.0378 4.41055 21.1012 4.54051 21.1012 4.73584C21.1012 4.93041 21.0378 5.09344 20.9109 5.15804ZM3.43211 5.87323L4.15946 4.08448L4.88758 5.87323H3.43211Z"/>
    </mask>
    <path fill-rule="evenodd" clip-rule="evenodd" d="M39.5 14.2641C39.5 15.24 38.8988 15.6945 37.8209 15.6945H35.7627V14.7178H37.8209C38.0113 14.7178 38.1691 14.6863 38.2333 14.6209C38.2968 14.5555 38.3595 14.4579 38.3595 14.3279C38.3595 14.1972 38.2968 14.068 38.2333 14.0034C38.1691 13.938 38.043 13.9057 37.8526 13.9057C36.8707 13.8726 35.6358 13.938 35.6358 12.5068C35.6358 11.8562 36.0482 11.1411 37.1562 11.1411H39.2779V12.1169H37.3141C37.1245 12.1169 36.9968 12.1169 36.9024 12.1823C36.808 12.2792 36.7446 12.3769 36.7446 12.5407C36.7446 12.7029 36.8398 12.8006 36.9651 12.8652C37.092 12.8983 37.2189 12.9306 37.3775 12.9306H37.947C38.5483 12.9306 38.929 13.0605 39.182 13.2889C39.3731 13.5166 39.5 13.8096 39.5 14.2641ZM35.0346 13.2889C34.7815 13.0605 34.4008 12.9306 33.7988 12.9306H33.2293C33.0707 12.9306 32.9438 12.8983 32.8185 12.8652C32.6916 12.8006 32.5964 12.7029 32.5964 12.5407C32.5964 12.3769 32.6281 12.2792 32.755 12.1823C32.8494 12.1169 32.9755 12.1169 33.1659 12.1169H35.129V11.1411H33.0073C31.8675 11.1411 31.4868 11.857 31.4868 12.5068C31.4868 13.938 32.7233 13.8726 33.7037 13.9057C33.894 13.9057 34.0209 13.938 34.0844 14.0034C34.147 14.068 34.2113 14.1972 34.2113 14.3279C34.2113 14.4579 34.147 14.5555 34.0844 14.6209C33.9892 14.6863 33.8623 14.7178 33.6727 14.7178H31.6145V15.6945H33.6727C34.749 15.6945 35.351 15.2392 35.351 14.2641C35.351 13.8096 35.2241 13.5166 35.0346 13.2889ZM30.9808 14.7516H28.4799V13.8411H30.9173V12.9298H28.4799V12.0839H30.9808V11.1403H27.4353V15.6937H30.9808V14.7516ZM26.294 11.3702C25.9466 11.1741 25.5349 11.1418 24.9956 11.1418H22.5582V15.6952H23.6346V14.0364H24.7759C25.155 14.0364 25.3771 14.0695 25.5349 14.2318C25.7245 14.4594 25.7245 14.8501 25.7245 15.1431V15.696H26.7691V14.817C26.7691 14.3948 26.7382 14.1987 26.612 13.9718C26.5169 13.8419 26.3265 13.6788 26.0743 13.5812C26.3582 13.4835 26.8333 13.0936 26.8333 12.3776C26.8333 11.857 26.643 11.5648 26.294 11.3702ZM20.2787 11.1418H16.8903L15.5285 12.6383L14.2301 11.1418H9.95502V15.6952H14.1667L15.5285 14.1987L16.8269 15.6952H18.8851V14.1672H20.2153C21.1337 14.1672 22.0514 13.9072 22.0514 12.6391C22.0514 11.4025 21.1012 11.1418 20.2787 11.1418ZM25.4398 13.0282C25.2819 13.0936 25.1233 13.0936 24.9329 13.0936L23.6346 13.1259V12.0846H24.9329C25.1233 12.0846 25.3121 12.0847 25.4398 12.1823C25.5659 12.2477 25.6611 12.3769 25.6611 12.5722C25.6611 12.7675 25.5659 12.9306 25.4398 13.0282ZM20.2787 13.2559H18.8851V12.0854H20.2787C20.6586 12.0854 20.9109 12.2485 20.9109 12.6391C20.9109 13.0282 20.6586 13.2559 20.2787 13.2559ZM16.194 13.4181L17.8405 11.6302V15.3046L16.194 13.4181ZM13.6281 14.7516H11.0004V13.8411H13.3434V12.9298H11.0004V12.0839H13.6606L14.8321 13.4166L13.6281 14.7516ZM36.5542 7.85732H35.0346L33.039 4.44284V7.85732H30.8856L30.4747 6.84836H28.2579L27.847 7.85732H26.612C26.1052 7.85732 25.4398 7.72658 25.0598 7.33592C24.7124 6.94602 24.5221 6.42539 24.5221 5.6133C24.5221 4.92964 24.6172 4.31288 25.0916 3.82455C25.408 3.46695 25.9783 3.30469 26.7064 3.30469H27.7201V4.27981H26.7064C26.3265 4.27981 26.1052 4.34518 25.8839 4.54051C25.6936 4.73584 25.5984 5.09344 25.5984 5.581C25.5984 6.06933 25.6936 6.42693 25.8839 6.65456C26.0425 6.81683 26.3265 6.88219 26.612 6.88219H27.0864L28.6068 3.30546H30.19L31.9634 7.59816V3.30546H33.61L35.4787 6.46V3.30546H36.555V7.85732H36.5542ZM23.9835 3.30469H22.9057V7.85732H23.9835V3.30469ZM21.7349 3.50002C21.3867 3.30469 21.0076 3.30469 20.4683 3.30469H18.0309V7.85732H19.0755V6.19853H20.216C20.5959 6.19853 20.849 6.23083 21.0076 6.39386C21.1972 6.62149 21.1654 7.01216 21.1654 7.27209V7.85809H22.2418V6.94679C22.2418 6.5569 22.21 6.36156 22.0522 6.13316C21.9578 6.0032 21.7674 5.84093 21.5454 5.74327C21.8309 5.6133 22.3052 5.25494 22.3052 4.54051C22.3044 4.01988 22.0831 3.72688 21.7349 3.50002ZM17.2703 6.91449H14.8004V6.0032H17.2385V5.0596H14.8004V4.24751H17.2703V3.30469H13.7233V7.85732H17.2703V6.91449ZM12.9317 3.30469H11.19L9.89157 6.39386L8.498 3.30469H6.78797V7.59739L4.98353 3.30469H3.40039L1.5 7.85732H2.64054L3.05219 6.84836H5.26828L5.67992 7.85732H7.83333V4.27981L9.38475 7.85732H10.3032L11.8546 4.27981V7.85732H12.9317V3.30469ZM30.0948 5.87323L29.3667 4.08448L28.6385 5.87323H30.0948ZM20.9109 5.15804C20.7538 5.25494 20.5952 5.25494 20.3739 5.25494H19.0747V4.24751H20.3739C20.5634 4.24751 20.7847 4.24751 20.9109 4.31288C21.0378 4.41055 21.1012 4.54051 21.1012 4.73584C21.1012 4.93041 21.0378 5.09344 20.9109 5.15804ZM3.43211 5.87323L4.15946 4.08448L4.88758 5.87323H3.43211Z" fill="#0A78A9"/>
    <path fill-rule="evenodd" clip-rule="evenodd" d="M39.5 14.2641C39.5 15.24 38.8988 15.6945 37.8209 15.6945H35.7627V14.7178H37.8209C38.0113 14.7178 38.1691 14.6863 38.2333 14.6209C38.2968 14.5555 38.3595 14.4579 38.3595 14.3279C38.3595 14.1972 38.2968 14.068 38.2333 14.0034C38.1691 13.938 38.043 13.9057 37.8526 13.9057C36.8707 13.8726 35.6358 13.938 35.6358 12.5068C35.6358 11.8562 36.0482 11.1411 37.1562 11.1411H39.2779V12.1169H37.3141C37.1245 12.1169 36.9968 12.1169 36.9024 12.1823C36.808 12.2792 36.7446 12.3769 36.7446 12.5407C36.7446 12.7029 36.8398 12.8006 36.9651 12.8652C37.092 12.8983 37.2189 12.9306 37.3775 12.9306H37.947C38.5483 12.9306 38.929 13.0605 39.182 13.2889C39.3731 13.5166 39.5 13.8096 39.5 14.2641ZM35.0346 13.2889C34.7815 13.0605 34.4008 12.9306 33.7988 12.9306H33.2293C33.0707 12.9306 32.9438 12.8983 32.8185 12.8652C32.6916 12.8006 32.5964 12.7029 32.5964 12.5407C32.5964 12.3769 32.6281 12.2792 32.755 12.1823C32.8494 12.1169 32.9755 12.1169 33.1659 12.1169H35.129V11.1411H33.0073C31.8675 11.1411 31.4868 11.857 31.4868 12.5068C31.4868 13.938 32.7233 13.8726 33.7037 13.9057C33.894 13.9057 34.0209 13.938 34.0844 14.0034C34.147 14.068 34.2113 14.1972 34.2113 14.3279C34.2113 14.4579 34.147 14.5555 34.0844 14.6209C33.9892 14.6863 33.8623 14.7178 33.6727 14.7178H31.6145V15.6945H33.6727C34.749 15.6945 35.351 15.2392 35.351 14.2641C35.351 13.8096 35.2241 13.5166 35.0346 13.2889ZM30.9808 14.7516H28.4799V13.8411H30.9173V12.9298H28.4799V12.0839H30.9808V11.1403H27.4353V15.6937H30.9808V14.7516ZM26.294 11.3702C25.9466 11.1741 25.5349 11.1418 24.9956 11.1418H22.5582V15.6952H23.6346V14.0364H24.7759C25.155 14.0364 25.3771 14.0695 25.5349 14.2318C25.7245 14.4594 25.7245 14.8501 25.7245 15.1431V15.696H26.7691V14.817C26.7691 14.3948 26.7382 14.1987 26.612 13.9718C26.5169 13.8419 26.3265 13.6788 26.0743 13.5812C26.3582 13.4835 26.8333 13.0936 26.8333 12.3776C26.8333 11.857 26.643 11.5648 26.294 11.3702ZM20.2787 11.1418H16.8903L15.5285 12.6383L14.2301 11.1418H9.95502V15.6952H14.1667L15.5285 14.1987L16.8269 15.6952H18.8851V14.1672H20.2153C21.1337 14.1672 22.0514 13.9072 22.0514 12.6391C22.0514 11.4025 21.1012 11.1418 20.2787 11.1418ZM25.4398 13.0282C25.2819 13.0936 25.1233 13.0936 24.9329 13.0936L23.6346 13.1259V12.0846H24.9329C25.1233 12.0846 25.3121 12.0847 25.4398 12.1823C25.5659 12.2477 25.6611 12.3769 25.6611 12.5722C25.6611 12.7675 25.5659 12.9306 25.4398 13.0282ZM20.2787 13.2559H18.8851V12.0854H20.2787C20.6586 12.0854 20.9109 12.2485 20.9109 12.6391C20.9109 13.0282 20.6586 13.2559 20.2787 13.2559ZM16.194 13.4181L17.8405 11.6302V15.3046L16.194 13.4181ZM13.6281 14.7516H11.0004V13.8411H13.3434V12.9298H11.0004V12.0839H13.6606L14.8321 13.4166L13.6281 14.7516ZM36.5542 7.85732H35.0346L33.039 4.44284V7.85732H30.8856L30.4747 6.84836H28.2579L27.847 7.85732H26.612C26.1052 7.85732 25.4398 7.72658 25.0598 7.33592C24.7124 6.94602 24.5221 6.42539 24.5221 5.6133C24.5221 4.92964 24.6172 4.31288 25.0916 3.82455C25.408 3.46695 25.9783 3.30469 26.7064 3.30469H27.7201V4.27981H26.7064C26.3265 4.27981 26.1052 4.34518 25.8839 4.54051C25.6936 4.73584 25.5984 5.09344 25.5984 5.581C25.5984 6.06933 25.6936 6.42693 25.8839 6.65456C26.0425 6.81683 26.3265 6.88219 26.612 6.88219H27.0864L28.6068 3.30546H30.19L31.9634 7.59816V3.30546H33.61L35.4787 6.46V3.30546H36.555V7.85732H36.5542ZM23.9835 3.30469H22.9057V7.85732H23.9835V3.30469ZM21.7349 3.50002C21.3867 3.30469 21.0076 3.30469 20.4683 3.30469H18.0309V7.85732H19.0755V6.19853H20.216C20.5959 6.19853 20.849 6.23083 21.0076 6.39386C21.1972 6.62149 21.1654 7.01216 21.1654 7.27209V7.85809H22.2418V6.94679C22.2418 6.5569 22.21 6.36156 22.0522 6.13316C21.9578 6.0032 21.7674 5.84093 21.5454 5.74327C21.8309 5.6133 22.3052 5.25494 22.3052 4.54051C22.3044 4.01988 22.0831 3.72688 21.7349 3.50002ZM17.2703 6.91449H14.8004V6.0032H17.2385V5.0596H14.8004V4.24751H17.2703V3.30469H13.7233V7.85732H17.2703V6.91449ZM12.9317 3.30469H11.19L9.89157 6.39386L8.498 3.30469H6.78797V7.59739L4.98353 3.30469H3.40039L1.5 7.85732H2.64054L3.05219 6.84836H5.26828L5.67992 7.85732H7.83333V4.27981L9.38475 7.85732H10.3032L11.8546 4.27981V7.85732H12.9317V3.30469ZM30.0948 5.87323L29.3667 4.08448L28.6385 5.87323H30.0948ZM20.9109 5.15804C20.7538 5.25494 20.5952 5.25494 20.3739 5.25494H19.0747V4.24751H20.3739C20.5634 4.24751 20.7847 4.24751 20.9109 4.31288C21.0378 4.41055 21.1012 4.54051 21.1012 4.73584C21.1012 4.93041 21.0378 5.09344 20.9109 5.15804ZM3.43211 5.87323L4.15946 4.08448L4.88758 5.87323H3.43211Z" stroke="white" stroke-width="2" mask="url(#path-1-outside-1_3766_9479)"/>
</svg>
