<svg width="28" height="24" viewBox="0 0 28 24" fill="none" xmlns="http://www.w3.org/2000/svg">
    <path d="M24.9801 12.0112C24.9801 16.9143 21.0191 20.8891 16.133 20.8891C11.2469 20.8891 7.28588 16.9143 7.28588 12.0112C7.28588 7.10811 11.2469 3.13336 16.133 3.13336C21.0191 3.13336 24.9801 7.10811 24.9801 12.0112Z" fill="#2C2C2E"/>
    <path d="M24.1019 24C25.3969 24 26.3703 23.6729 27.0222 23.0188C27.6741 22.3735 28 21.4099 28 20.1282V3.87182C28 2.59006 27.6741 1.62652 27.0222 0.981215C26.3703 0.327072 25.3969 0 24.1019 0H12.8042C12.302 0 11.8351 0.0441989 11.4035 0.132597C10.9718 0.212155 10.5622 0.358011 10.1746 0.570166C9.78701 0.773481 9.42143 1.05193 9.07787 1.40552L1.1496 9.6C0.885323 9.87403 0.665094 10.1436 0.48891 10.4088C0.321535 10.6652 0.198207 10.9215 0.118924 11.1779C0.0396413 11.4343 0 11.695 0 11.9602C0 12.358 0.0924965 12.7514 0.277489 13.1403C0.462482 13.5293 0.753185 13.9315 1.1496 14.347L9.09108 22.4221C9.43464 22.7757 9.79582 23.0674 10.1746 23.2972C10.5622 23.5271 10.9718 23.6994 11.4035 23.8144C11.844 23.9293 12.3152 23.9867 12.8174 23.9867L24.1019 24ZM11.681 17.5823C11.4431 17.5823 11.2405 17.5028 11.0731 17.3436C10.9146 17.1757 10.8353 16.9724 10.8353 16.7337C10.8353 16.495 10.919 16.2917 11.0864 16.1238L15.1826 12.0133L11.0864 7.90276C10.919 7.73481 10.8353 7.53149 10.8353 7.29282C10.8353 7.05414 10.9146 6.85525 11.0731 6.69613C11.2405 6.53702 11.4431 6.45746 11.681 6.45746C11.9276 6.45746 12.1302 6.54586 12.2888 6.72265L16.3851 10.8199L20.5078 6.70939C20.6752 6.5326 20.8734 6.4442 21.1024 6.4442C21.3403 6.4442 21.5385 6.52818 21.697 6.69613C21.8644 6.85525 21.9481 7.04972 21.9481 7.27956C21.9481 7.50939 21.8644 7.71271 21.697 7.8895L17.5875 12.0133L21.6838 16.1105C21.8512 16.2961 21.9349 16.5039 21.9349 16.7337C21.9349 16.9724 21.8512 17.1757 21.6838 17.3436C21.5252 17.5028 21.327 17.5823 21.0892 17.5823C20.8602 17.5823 20.6531 17.4939 20.4681 17.3171L16.3851 13.2199L12.3152 17.3171C12.1391 17.4939 11.9276 17.5823 11.681 17.5823Z" fill="#EEEEEE"/>
</svg>
