<svg width="28" height="28" viewBox="0 0 28 28" fill="none" xmlns="http://www.w3.org/2000/svg">
    <path d="M5.1984 16.1934L4.62683 15.7078H4.62683L5.1984 16.1934ZM6.22421 13.8116L5.47898 13.7272L6.22421 13.8116ZM21.7764 13.8116L22.5217 13.7272L21.7764 13.8116ZM22.8023 16.1934L23.3738 15.7078L22.8023 16.1934ZM21.3741 10.2597L20.6288 10.3441L21.3741 10.2597ZM6.62657 10.2597L7.3718 10.3441L6.62657 10.2597ZM18.2026 22.4299C18.348 22.042 18.1514 21.6097 17.7635 21.4644C17.3757 21.319 16.9434 21.5156 16.798 21.9035L18.2026 22.4299ZM11.2026 21.9035C11.0573 21.5156 10.625 21.319 10.2371 21.4644C9.84925 21.6097 9.65266 22.042 9.79803 22.4299L11.2026 21.9035ZM21.1985 19.0833H6.80215V20.5833H21.1985V19.0833ZM20.6288 10.3441L21.0312 13.896L22.5217 13.7272L22.1193 10.1753L20.6288 10.3441ZM6.96944 13.896L7.3718 10.3441L5.88133 10.1753L5.47898 13.7272L6.96944 13.896ZM5.76997 16.679C6.43579 15.8953 6.85292 14.9246 6.96944 13.896L5.47898 13.7272C5.39555 14.4637 5.09727 15.1541 4.62683 15.7078L5.76997 16.679ZM21.0312 13.896C21.1477 14.9246 21.5649 15.8953 22.2307 16.679L23.3738 15.7078C22.9034 15.1541 22.6051 14.4637 22.5217 13.7272L21.0312 13.896ZM6.80215 19.0833C5.65381 19.0833 4.94993 17.6442 5.76997 16.679L4.62683 15.7078C3.03559 17.5807 4.28874 20.5833 6.80215 20.5833V19.0833ZM21.1985 20.5833C23.7119 20.5833 24.9651 17.5807 23.3738 15.7078L22.2307 16.679C23.0507 17.6442 22.3468 19.0833 21.1985 19.0833V20.5833ZM22.1193 10.1753C21.6418 5.95987 18.1664 2.75 14.0003 2.75V4.25C17.3687 4.25 20.2333 6.85212 20.6288 10.3441L22.1193 10.1753ZM7.3718 10.3441C7.76738 6.85212 10.6319 4.25 14.0003 4.25V2.75C9.83427 2.75 6.35886 5.95987 5.88133 10.1753L7.3718 10.3441ZM16.798 21.9035C16.4025 22.9588 15.3157 23.75 14.0003 23.75V25.25C15.9166 25.25 17.5792 24.0934 18.2026 22.4299L16.798 21.9035ZM14.0003 23.75C12.6849 23.75 11.5981 22.9588 11.2026 21.9035L9.79803 22.4299C10.4215 24.0934 12.084 25.25 14.0003 25.25V23.75Z" fill="#FFFFFF"/>
</svg>
