<svg width="15" height="15" viewBox="0 0 15 15" fill="none" xmlns="http://www.w3.org/2000/svg">
    <path fill-rule="evenodd" clip-rule="evenodd" d="M5.25392 2.43162L4.375 3.75H3.75C2.36929 3.75 1.25 4.86929 1.25 6.25V10.625C1.25 12.0057 2.36929 13.125 3.75 13.125H11.25C12.6307 13.125 13.75 12.0057 13.75 10.625V6.25C13.75 4.86929 12.6307 3.75 11.25 3.75H10.625L9.74608 2.43162C9.51425 2.08388 9.12396 1.875 8.70602 1.875H6.29398C5.87604 1.875 5.48575 2.08388 5.25392 2.43162ZM9.37517 8.4375C9.37517 9.47303 8.53571 10.3125 7.50017 10.3125C6.46464 10.3125 5.62517 9.47303 5.62517 8.4375C5.62517 7.40197 6.46464 6.5625 7.50017 6.5625C8.53571 6.5625 9.37517 7.40197 9.37517 8.4375ZM7.5 4.375C7.84518 4.375 8.125 4.09518 8.125 3.75C8.125 3.40482 7.84518 3.125 7.5 3.125C7.15482 3.125 6.875 3.40482 6.875 3.75C6.875 4.09518 7.15482 4.375 7.5 4.375Z" fill="white"/>
</svg>
