<svg width="20" height="20" viewBox="0 0 20 20" fill="none" xmlns="http://www.w3.org/2000/svg">
    <path fill-rule="evenodd" clip-rule="evenodd" d="M9.16669 2.5H10.8334C14.9755 2.5 18.3334 5.85786 18.3334 10C18.3334 14.1421 14.9755 17.5 10.8334 17.5H5.00002C3.15907 17.5 1.66669 16.0076 1.66669 14.1667V10C1.66669 5.85786 5.02455 2.5 9.16669 2.5ZM6.66669 12.2917C6.32151 12.2917 6.04169 12.0118 6.04169 11.6667C6.04169 11.3215 6.32151 11.0417 6.66669 11.0417H10C10.3452 11.0417 10.625 11.3215 10.625 11.6667C10.625 12.0118 10.3452 12.2917 10 12.2917H6.66669ZM6.66669 8.95833C6.32151 8.95833 6.04169 8.67851 6.04169 8.33333C6.04169 7.98816 6.32151 7.70833 6.66669 7.70833H13.3334C13.6785 7.70833 13.9584 7.98816 13.9584 8.33333C13.9584 8.67851 13.6785 8.95833 13.3334 8.95833H6.66669Z" fill="white"/>
</svg>
