<svg width="12" height="12" viewBox="0 0 12 12" fill="none" xmlns="http://www.w3.org/2000/svg">
    <path fill-rule="evenodd" clip-rule="evenodd" d="M5.00617 6.00018L0.375667 10.6307C0.101044 10.9053 0.101044 11.3506 0.375667 11.6252V11.6252C0.650291 11.8998 1.09554 11.8998 1.37017 11.6252L6.00067 6.99468L10.6312 11.6252C10.9058 11.8998 11.351 11.8998 11.6257 11.6252V11.6252C11.9003 11.3506 11.9003 10.9053 11.6257 10.6307L6.99517 6.00018L11.6257 1.36968C11.9003 1.09506 11.9003 0.649803 11.6257 0.375179V0.375179C11.351 0.100556 10.9058 0.100556 10.6312 0.37518L6.00067 5.00568L1.37017 0.375179C1.09554 0.100555 0.650291 0.100556 0.375668 0.37518V0.37518C0.101044 0.649803 0.101044 1.09506 0.375668 1.36968L5.00617 6.00018Z" fill="white"/>
</svg>
