<svg width="17" height="17" viewBox="0 0 17 17" fill="none" xmlns="http://www.w3.org/2000/svg">
    <path d="M12.75 9.91602L13.4596 9.20646C13.8501 8.81593 13.8501 8.18277 13.4596 7.79224L12.75 7.08268" stroke="white" stroke-width="1.5" stroke-linecap="round" stroke-linejoin="round"/>
    <path d="M13.4585 8.5L9.2085 8.5M2.8335 12.2303V5.14698M11.3335 12.2303C11.3335 13.0127 10.6992 13.647 9.91683 13.647H7.0835M11.3335 5.14698C11.3335 4.36458 10.6992 3.73032 9.91683 3.73032H7.0835M3.46434 14.0675L4.881 15.012C5.82246 15.6396 7.0835 14.9647 7.0835 13.8333V3.54405C7.0835 2.41256 5.82246 1.73768 4.881 2.36531L3.46434 3.30976C3.07022 3.5725 2.8335 4.01483 2.8335 4.48849V12.8888C2.8335 13.3625 3.07022 13.8048 3.46434 14.0675Z" stroke="white" stroke-width="1.5" stroke-linecap="round"/>
</svg>
