<svg width="30" height="19" viewBox="0 0 30 19" fill="none" xmlns="http://www.w3.org/2000/svg">
    <path d="M14.9995 5.01883C15.7357 5.55172 16.3308 6.23207 16.7398 7.00838C17.1487 7.78469 17.3608 8.63661 17.3599 9.49967C17.3605 10.3624 17.1483 11.214 16.7394 11.99C16.3304 12.766 15.7355 13.4461 14.9995 13.9788C14.2635 13.446 13.6685 12.7658 13.2595 11.9897C12.8506 11.2135 12.6385 10.3618 12.6392 9.49883C12.6385 8.63592 12.8506 7.78416 13.2595 7.008C13.6685 6.23185 14.2635 5.55163 14.9995 5.01883V5.01883ZM14.2085 4.53083C13.4292 5.14424 12.8037 5.90638 12.3751 6.76457C11.9466 7.62276 11.7252 8.55653 11.7263 9.50135C11.7252 10.4458 11.9464 11.3791 12.3747 12.237C12.8029 13.0949 13.428 13.8568 14.2067 14.4702C13.266 14.9572 12.2034 15.2086 11.1247 15.1996C10.0459 15.1905 8.98851 14.9212 8.05758 14.4185C7.12665 13.9158 6.35462 13.1971 5.81821 12.334C5.28181 11.4708 4.99973 10.4932 5 9.49836C5.00027 8.50351 5.28289 7.52606 5.81977 6.66315C6.35665 5.80025 7.12908 5.08195 8.06028 4.57966C8.99149 4.07737 10.049 3.80858 11.1278 3.80002C12.2066 3.79145 13.269 4.0434 14.2094 4.53083H14.2085ZM15.7924 14.4702C16.5711 13.8568 17.1962 13.0949 17.6244 12.237C18.0526 11.3791 18.2739 10.4458 18.2728 9.50135C18.2739 8.55653 18.0525 7.62276 17.624 6.76457C17.1954 5.90638 16.5698 5.14424 15.7906 4.53083C16.731 4.0434 17.7934 3.79145 18.8722 3.80002C19.951 3.80858 21.0085 4.07737 21.9397 4.57966C22.8709 5.08195 23.6434 5.80025 24.1802 6.66315C24.7171 7.52606 24.9997 8.50351 25 9.49836C25.0003 10.4932 24.7182 11.4708 24.1818 12.334C23.6454 13.1971 22.8733 13.9158 21.9424 14.4185C21.0115 14.9212 19.9541 15.1905 18.8753 15.1996C17.7966 15.2086 16.734 14.9572 15.7933 14.4702H15.7924Z" fill="white"/>
</svg>
