<svg width="16" height="16" viewBox="0 0 16 16" fill="none" xmlns="http://www.w3.org/2000/svg">
    <path d="M2.97065 9.25337L2.39909 8.76776L2.39909 8.76776L2.97065 9.25337ZM3.55683 7.89233L2.8116 7.80791L3.55683 7.89233ZM12.4438 7.89233L13.1891 7.80791L13.1891 7.80791L12.4438 7.89233ZM13.03 9.25337L13.6016 8.76776L13.6016 8.76776L13.03 9.25337ZM12.2139 5.86269L11.4687 5.94711L11.4687 5.94711L12.2139 5.86269ZM3.78675 5.86269L4.53198 5.94711L4.53198 5.94711L3.78675 5.86269ZM10.7026 12.9299C10.848 12.542 10.6514 12.1097 10.2635 11.9644C9.87566 11.819 9.44339 12.0156 9.29803 12.4035L10.7026 12.9299ZM6.70262 12.4035C6.55726 12.0156 6.12499 11.819 5.73712 11.9644C5.34925 12.1097 5.15266 12.542 5.29803 12.9299L6.70262 12.4035ZM12.1136 10.5833H3.88708V12.0833H12.1136V10.5833ZM11.4687 5.94711L11.6986 7.97675L13.1891 7.80791L12.9591 5.77827L11.4687 5.94711ZM4.30207 7.97675L4.53198 5.94711L3.04152 5.77827L2.8116 7.80791L4.30207 7.97675ZM3.54222 9.73897C3.96456 9.24186 4.22839 8.62715 4.30207 7.97675L2.8116 7.80791C2.77101 8.16616 2.62604 8.50063 2.39909 8.76776L3.54222 9.73897ZM11.6986 7.97675C11.7723 8.62715 12.0361 9.24186 12.4584 9.73897L13.6016 8.76776C13.3746 8.50063 13.2296 8.16616 13.1891 7.80791L11.6986 7.97675ZM3.88708 10.5833C3.5234 10.5833 3.23889 10.096 3.54222 9.73897L2.39909 8.76776C1.32454 10.0325 2.15833 12.0833 3.88708 12.0833V10.5833ZM12.1136 12.0833C13.8423 12.0833 14.6761 10.0325 13.6016 8.76776L12.4584 9.73897C12.7618 10.096 12.4773 10.5833 12.1136 10.5833V12.0833ZM12.9591 5.77827C12.6687 3.21444 10.5519 1.25 8.00033 1.25V2.75C9.7542 2.75 11.2602 4.1067 11.4687 5.94711L12.9591 5.77827ZM4.53198 5.94711C4.74047 4.1067 6.24645 2.75 8.00033 2.75V1.25C5.4488 1.25 3.33195 3.21444 3.04152 5.77827L4.53198 5.94711ZM9.29803 12.4035C9.12087 12.8762 8.62323 13.25 8.00033 13.25V14.75C9.22413 14.75 10.2975 14.0108 10.7026 12.9299L9.29803 12.4035ZM8.00033 13.25C7.37742 13.25 6.87978 12.8762 6.70262 12.4035L5.29803 12.9299C5.70312 14.0108 6.77652 14.75 8.00033 14.75V13.25Z" fill="white"/>
</svg>
