<svg width="16" height="16" viewBox="0 0 16 16" fill="none" xmlns="http://www.w3.org/2000/svg">
    <g clip-path="url(#clip0_3726_2879)">
        <path d="M12.6661 14.5835C13.8166 14.2877 14.6668 13.2435 14.6668 12.0007V4.00065C14.6668 2.52789 13.4729 1.33398 12.0002 1.33398H4.00016C2.5274 1.33398 1.3335 2.52789 1.3335 4.00065V12.0007C1.3335 13.2435 2.18371 14.2877 3.33423 14.5835M12.6661 14.5835C12.4532 14.6382 12.2301 14.6673 12.0002 14.6673H4.00016C3.77023 14.6673 3.54709 14.6382 3.33423 14.5835M12.6661 14.5835C12.6214 12.0448 10.5495 10.0007 8.00016 10.0007C5.45083 10.0007 3.37895 12.0448 3.33423 14.5835M10.0002 6.00065C10.0002 4.89608 9.10473 4.00065 8.00016 4.00065C6.89559 4.00065 6.00016 4.89608 6.00016 6.00065C6.00016 7.10522 6.89559 8.00065 8.00016 8.00065C9.10473 8.00065 10.0002 7.10522 10.0002 6.00065Z" stroke="white" stroke-width="1.5"/>
    </g>
    <defs>
        <clipPath id="clip0_3726_2879">
            <rect width="16" height="16" fill="white"/>
        </clipPath>
    </defs>
</svg>
