<svg width="20" height="20" viewBox="0 0 20 20" fill="none" xmlns="http://www.w3.org/2000/svg">
    <path fill-rule="evenodd" clip-rule="evenodd" d="M1.66666 7.33398C1.66666 5.12484 3.45752 3.33398 5.66666 3.33398H9.33332C11.5425 3.33398 13.3333 5.12485 13.3333 7.33398V12.6673C13.3333 14.8765 11.5425 16.6673 9.33332 16.6673H5.66666C3.45752 16.6673 1.66666 14.8765 1.66666 12.6673V7.33398ZM10.8333 7.50065C10.8333 8.42113 10.0871 9.16732 9.16666 9.16732C8.24618 9.16732 7.49999 8.42113 7.49999 7.50065C7.49999 6.58018 8.24618 5.83398 9.16666 5.83398C10.0871 5.83398 10.8333 6.58018 10.8333 7.50065ZM14.8742 12.9776L14.5833 12.6673V7.33393L14.8742 7.02361C16.1143 5.7009 18.3333 6.57842 18.3333 8.39149V11.6097C18.3333 13.4228 16.1143 14.3003 14.8742 12.9776Z" fill="white"/>
</svg>
