<svg width="33" height="11" viewBox="0 0 33 11" fill="none" xmlns="http://www.w3.org/2000/svg">
    <path fill-rule="evenodd" clip-rule="evenodd" d="M13.3773 0.410834L11.7198 10.5974H14.3717L16.0295 0.410834H13.3773ZM9.48856 0.410834L6.96013 7.4171L6.66105 5.9084L6.66126 5.9089L6.59535 5.57075C6.28935 4.91127 5.58064 3.65787 4.24239 2.58819C3.84675 2.27201 3.44792 2.00217 3.06238 1.77168L5.36031 10.5974H8.1234L12.3428 0.410834H9.48856ZM19.8386 3.23884C19.8386 2.08715 22.4213 2.23514 23.5562 2.8605L23.9346 0.672689C23.9346 0.672689 22.7667 0.228516 21.5493 0.228516C20.2331 0.228516 17.1079 0.804077 17.1079 3.60072C17.1079 6.2327 20.776 6.26541 20.776 7.64724C20.776 9.02907 17.4861 8.78211 16.4004 7.91044L16.0058 10.1972C16.0058 10.1972 17.1899 10.7728 18.9996 10.7728C20.8091 10.7728 23.5397 9.83533 23.5397 7.28536C23.5397 4.63692 19.8386 4.39024 19.8386 3.23884ZM30.6604 0.410834H28.5281C27.5436 0.410834 27.3038 1.16998 27.3038 1.16998L23.3489 10.5974H26.1131L26.666 9.08445H30.0375L30.3485 10.5974H32.7835L30.6604 0.410834ZM27.4303 6.99404L28.8238 3.18198L29.6078 6.99404H27.4303Z" fill="#005BAC"/>
    <path fill-rule="evenodd" clip-rule="evenodd" d="M5.80555 1.36858C5.80555 1.36858 5.69578 0.449219 4.52389 0.449219H0.266301L0.216431 0.622C0.216431 0.622 2.26296 1.03919 4.22636 2.6022C6.10265 4.09606 6.71473 5.95823 6.71473 5.95823L5.80555 1.36858Z" fill="#F6AC1D"/>
</svg>
